Serrin.ufo
<glyph name="A" format="1">
  <advance width="749"/>
  <unicode hex="0041"/>
  <outline>
    <contour>
      <point x="230" y="258" type="line"/>
      <point x="509" y="258" type="line"/>
      <point x="368" y="716" type="line"/>
    </contour>
    <contour>
      <point x="254" y="800" type="line"/>
      <point x="479" y="800" type="line"/>
      <point x="749" y="0" type="line"/>
      <point x="593" y="0" type="line"/>
      <point x="545" y="123" type="line"/>
      <point x="203" y="126" type="line"/>
      <point x="164" y="0" type="line"/>
      <point x="20" y="0" type="line"/>
    </contour>
  </outline>
</glyph>
<glyph name="B" format="1">
  <advance width="822"/>
  <unicode hex="0042"/>
  <outline>
    <contour>
      <point x="105" y="0" type="line"/>
      <point x="443" y="0" type="line" smooth="yes"/>
      <point x="668" y="0"/>
      <point x="772" y="96"/>
      <point x="772" y="263" type="curve" smooth="yes"/>
      <point x="772" y="451"/>
      <point x="585" y="493"/>
      <point x="585" y="493" type="curve" smooth="yes"/>
      <point x="585" y="493"/>
      <point x="672" y="548"/>
      <point x="672" y="640" type="curve" smooth="yes"/>
      <point x="672" y="719"/>
      <point x="605" y="800"/>
      <point x="495" y="800" type="curve" smooth="yes"/>
      <point x="202" y="800" type="line"/>
      <point x="72" y="800" type="line"/>
      <point x="72" y="0" type="line"/>
    </contour>
    <contour>
      <point x="202" y="407" type="line"/>
      <point x="443" y="405" type="line" smooth="yes"/>
      <point x="572" y="405"/>
      <point x="639" y="336"/>
      <point x="639" y="265" type="curve" smooth="yes"/>
      <point x="639" y="193"/>
      <point x="575" y="119"/>
      <point x="443" y="119" type="curve" smooth="yes"/>
      <point x="202" y="118" type="line"/>
    </contour>
    <contour>
      <point x="202" y="685" type="line"/>
      <point x="443" y="685" type="line" smooth="yes"/>
      <point x="561" y="685"/>
      <point x="561" y="521"/>
      <point x="443" y="521" type="curve" smooth="yes"/>
      <point x="202" y="521" type="line"/>
    </contour>
  </outline>
</glyph>
<glyph name="C" format="1">
  <advance width="781"/>
  <unicode hex="0043"/>
  <outline>
    <contour>
      <point x="666" y="632"/>
      <point x="731" y="745"/>
      <point x="731" y="745" type="curve"/>
      <point x="731" y="745"/>
      <point x="618" y="820"/>
      <point x="446" y="820" type="curve"/>
      <point x="256" y="820"/>
      <point x="50" y="698"/>
      <point x="50" y="398" type="curve" smooth="yes"/>
      <point x="50" y="104"/>
      <point x="248" y="-15"/>
      <point x="450" y="-15" type="curve" smooth="yes"/>
      <point x="622" y="-15"/>
      <point x="730" y="70"/>
      <point x="730" y="70" type="curve"/>
      <point x="667" y="176" type="line"/>
      <point x="667" y="176"/>
      <point x="582" y="115"/>
      <point x="450" y="115" type="curve"/>
      <point x="288" y="115"/>
      <point x="197" y="227"/>
      <point x="197" y="398" type="curve" smooth="yes"/>
      <point x="197" y="566"/>
      <point x="286" y="690"/>
      <point x="450" y="690" type="curve"/>
      <point x="582" y="690"/>
      <point x="666" y="632"/>
      <point x="666" y="632" type="curve"/>
    </contour>
  </outline>
</glyph>
<glyph name="D" format="1">
  <advance width="760"/>
  <unicode hex="0044"/>
  <outline>
    <contour>
      <point x="181" y="683" type="move"/>
    </contour>
    <contour>
      <point x="189" y="129" type="line"/>
      <point x="288" y="131" type="line"/>
      <point x="474" y="129"/>
      <point x="566" y="240"/>
      <point x="565" y="389" type="curve" smooth="yes"/>
      <point x="565" y="563"/>
      <point x="494" y="669"/>
      <point x="281" y="670" type="curve"/>
      <point x="183" y="670" type="line"/>
    </contour>
    <contour>
      <point x="315" y="0" type="curve"/>
      <point x="56" y="0" type="line"/>
      <point x="50" y="800" type="line"/>
      <point x="314" y="800" type="line"/>
      <point x="540" y="802"/>
      <point x="710" y="638"/>
      <point x="710" y="383" type="curve" smooth="yes"/>
      <point x="710" y="149"/>
      <point x="505" y="0"/>
    </contour>
  </outline>
</glyph>
<glyph name="E" format="1">
  <advance width="696"/>
  <unicode hex="0045"/>
  <outline>
    <contour>
      <point x="50" y="800" type="line"/>
      <point x="50" y="0" type="line"/>
      <point x="646" y="0" type="line"/>
      <point x="646" y="142" type="line"/>
      <point x="206" y="142" type="line"/>
      <point x="206" y="417" type="line"/>
      <point x="460" y="417" type="line"/>
      <point x="460" y="540" type="line"/>
      <point x="206" y="540" type="line"/>
      <point x="206" y="676" type="line"/>
      <point x="628" y="676" type="line"/>
      <point x="627" y="800" type="line"/>
    </contour>
  </outline>
</glyph>
<glyph name="F" format="1">
  <advance width="678"/>
  <unicode hex="0046"/>
  <outline>
    <contour>
      <point x="50" y="800" type="line"/>
      <point x="628" y="800" type="line"/>
      <point x="628" y="672" type="line"/>
      <point x="216" y="672" type="line"/>
      <point x="216" y="542" type="line"/>
      <point x="460" y="542" type="line"/>
      <point x="460" y="414" type="line"/>
      <point x="216" y="414" type="line"/>
      <point x="216" y="0" type="line"/>
      <point x="50" y="0" type="line"/>
    </contour>
  </outline>
</glyph>
<glyph name="G" format="1">
  <advance width="857"/>
  <unicode hex="0047"/>
  <outline>
    <contour>
      <point x="60" y="98"/>
      <point x="268" y="-15"/>
      <point x="454" y="-15" type="curve" smooth="yes"/>
      <point x="646" y="-15"/>
      <point x="723" y="77"/>
      <point x="767" y="121" type="curve"/>
      <point x="767" y="430" type="line"/>
      <point x="454" y="430" type="line"/>
      <point x="454" y="315" type="line"/>
      <point x="637" y="315" type="line"/>
      <point x="637" y="175" type="line"/>
      <point x="609" y="147"/>
      <point x="560" y="115"/>
      <point x="454" y="115" type="curve" smooth="yes"/>
      <point x="299" y="115"/>
      <point x="190" y="209"/>
      <point x="190" y="411" type="curve" smooth="yes"/>
      <point x="190" y="587"/>
      <point x="302" y="690"/>
      <point x="453" y="690" type="curve" smooth="yes"/>
      <point x="585" y="690"/>
      <point x="702" y="632"/>
      <point x="702" y="632" type="curve"/>
      <point x="767" y="745" type="line"/>
      <point x="767" y="745"/>
      <point x="625" y="820"/>
      <point x="453" y="820" type="curve" smooth="yes"/>
      <point x="267" y="820"/>
      <point x="60" y="694"/>
      <point x="60" y="411" type="curve" smooth="yes"/>
    </contour>
  </outline>
</glyph>
<glyph name="H" format="1">
  <advance width="768"/>
  <unicode hex="0048"/>
  <outline>
    <contour>
      <point x="60" y="0" type="line"/>
      <point x="190" y="0" type="line"/>
      <point x="190" y="800" type="line"/>
      <point x="60" y="800" type="line"/>
    </contour>
    <contour>
      <point x="578" y="0" type="line"/>
      <point x="708" y="0" type="line"/>
      <point x="708" y="800" type="line"/>
      <point x="578" y="800" type="line"/>
    </contour>
    <contour>
      <point x="123" y="471" type="line"/>
      <point x="650" y="471" type="line"/>
      <point x="650" y="586" type="line"/>
      <point x="123" y="586" type="line"/>
    </contour>
  </outline>
</glyph>
<glyph name="I" format="1">
  <advance width="248"/>
  <unicode hex="0049"/>
  <outline>
    <contour>
      <point x="30" y="800" type="line"/>
      <point x="168" y="800" type="line"/>
      <point x="168" y="0" type="line"/>
      <point x="34" y="0" type="line"/>
    </contour>
  </outline>
</glyph>
<glyph name="J" format="1">
  <advance width="611"/>
  <unicode hex="004A"/>
  <outline>
    <contour>
      <point x="430" y="799" type="line"/>
      <point x="571" y="799" type="line"/>
      <point x="571" y="217" type="line"/>
      <point x="571" y="86"/>
      <point x="443" y="3"/>
      <point x="329" y="3" type="curve" smooth="yes"/>
      <point x="219" y="3"/>
      <point x="149" y="28"/>
      <point x="40" y="81" type="curve"/>
      <point x="100" y="195" type="line"/>
      <point x="174" y="162"/>
      <point x="231" y="134"/>
      <point x="301" y="134" type="curve" smooth="yes"/>
      <point x="373" y="134"/>
      <point x="424" y="172"/>
      <point x="427" y="258" type="curve"/>
    </contour>
  </outline>
</glyph>
<glyph name="K" format="1">
  <advance width="776"/>
  <unicode hex="004B"/>
  <outline>
    <contour>
      <point x="50" y="798" type="line"/>
      <point x="50" y="0" type="line"/>
      <point x="192" y="0" type="line"/>
      <point x="192" y="192" type="line"/>
      <point x="280" y="286" type="line"/>
      <point x="498" y="0" type="line"/>
      <point x="674" y="0" type="line"/>
      <point x="378" y="404" type="line"/>
      <point x="736" y="796" type="line"/>
      <point x="536" y="800" type="line"/>
      <point x="188" y="410" type="line"/>
      <point x="188" y="796" type="line"/>
    </contour>
  </outline>
</glyph>
<glyph name="L" format="1">
  <advance width="676"/>
  <unicode hex="004C"/>
  <outline>
    <contour>
      <point x="636" y="0" type="line"/>
      <point x="40" y="0" type="line"/>
      <point x="40" y="152" type="line"/>
      <point x="636" y="152" type="line"/>
    </contour>
    <contour>
      <point x="42" y="798" type="move"/>
    </contour>
    <contour>
      <point x="40" y="800" type="line"/>
      <point x="206" y="800" type="line"/>
      <point x="206" y="0" type="line"/>
      <point x="40" y="0" type="line"/>
    </contour>
  </outline>
</glyph>
<glyph name="M" format="1">
  <advance width="868"/>
  <unicode hex="004D"/>
  <outline>
    <contour>
      <point x="138" y="0" type="line"/>
      <point x="238" y="550" type="line"/>
      <point x="370" y="140" type="line"/>
      <point x="508" y="140" type="line"/>
      <point x="613" y="552" type="line"/>
      <point x="713" y="0" type="line"/>
      <point x="838" y="0" type="line"/>
      <point x="714" y="800" type="line"/>
      <point x="573" y="800" type="line"/>
      <point x="438" y="362" type="line"/>
      <point x="278" y="800" type="line"/>
      <point x="138" y="800" type="line"/>
      <point x="10" y="0" type="line"/>
    </contour>
  </outline>
</glyph>
<glyph name="N" format="1">
  <advance width="746"/>
  <unicode hex="004E"/>
  <outline>
    <contour>
      <point x="30" y="798" type="line"/>
      <point x="30" y="0" type="line"/>
      <point x="170" y="0" type="line"/>
      <point x="170" y="626" type="line"/>
      <point x="588" y="164" type="line"/>
      <point x="588" y="0" type="line"/>
      <point x="716" y="0" type="line"/>
      <point x="716" y="802" type="line"/>
      <point x="588" y="802" type="line"/>
      <point x="588" y="366" type="line"/>
      <point x="184" y="802" type="line"/>
    </contour>
  </outline>
</glyph>
<glyph name="O" format="1">
  <advance width="892"/>
  <unicode hex="004F"/>
  <outline>
    <contour>
      <point x="431" y="803" type="curve" smooth="yes"/>
      <point x="208" y="803"/>
      <point x="21" y="629"/>
      <point x="20" y="405" type="curve" smooth="yes"/>
      <point x="20" y="180"/>
      <point x="199" y="-6"/>
      <point x="431" y="-3" type="curve" smooth="yes"/>
      <point x="655" y="0"/>
      <point x="842" y="179"/>
      <point x="842" y="405" type="curve" smooth="yes"/>
      <point x="842" y="629"/>
      <point x="654" y="803"/>
    </contour>
    <contour>
      <point x="431" y="674" type="curve" smooth="yes"/>
      <point x="583" y="674"/>
      <point x="710" y="555"/>
      <point x="710" y="404" type="curve" smooth="yes"/>
      <point x="710" y="249"/>
      <point x="585" y="123"/>
      <point x="431" y="125" type="curve" smooth="yes"/>
      <point x="274" y="128"/>
      <point x="151" y="249"/>
      <point x="151" y="404" type="curve" smooth="yes"/>
      <point x="152" y="555"/>
      <point x="279" y="674"/>
    </contour>
  </outline>
</glyph>
<glyph name="P" format="1">
  <advance width="708"/>
  <unicode hex="0050"/>
  <outline>
    <contour>
      <point x="159" y="673" type="curve"/>
      <point x="159" y="374" type="line"/>
      <point x="159" y="374"/>
      <point x="221" y="374"/>
      <point x="273" y="374" type="curve" smooth="yes"/>
      <point x="426" y="373"/>
      <point x="522" y="376"/>
      <point x="522" y="524" type="curve" smooth="yes"/>
      <point x="522" y="656"/>
      <point x="396" y="672"/>
      <point x="274" y="672" type="curve" smooth="yes"/>
      <point x="224" y="672"/>
      <point x="159" y="673"/>
    </contour>
    <contour>
      <point x="158" y="0" type="line"/>
      <point x="20" y="0" type="line"/>
      <point x="25" y="800" type="line"/>
      <point x="25" y="800"/>
      <point x="102" y="800"/>
      <point x="217" y="800" type="curve" smooth="yes"/>
      <point x="432" y="800"/>
      <point x="642" y="770"/>
      <point x="648" y="526" type="curve" smooth="yes"/>
      <point x="652" y="340"/>
      <point x="522" y="251"/>
      <point x="317" y="248" type="curve"/>
      <point x="158" y="249" type="line"/>
    </contour>
  </outline>
</glyph>
<glyph name="Q" format="1">
  <advance width="937"/>
  <unicode hex="0051"/>
  <outline>
    <contour>
      <point x="663" y="283" type="line"/>
      <point x="877" y="22" type="line"/>
      <point x="745" y="22" type="line"/>
      <point x="533" y="284" type="line"/>
    </contour>
    <contour>
      <point x="887" y="612" type="move"/>
    </contour>
    <contour>
      <point x="743" y="540"/>
      <point x="619" y="676"/>
      <point x="457" y="676" type="curve" smooth="yes"/>
      <point x="312" y="676"/>
      <point x="189" y="535"/>
      <point x="189" y="390" type="curve" smooth="yes"/>
      <point x="189" y="230"/>
      <point x="315" y="113"/>
      <point x="474" y="113" type="curve" smooth="yes"/>
      <point x="619" y="113"/>
      <point x="743" y="234"/>
      <point x="743" y="378" type="curve" smooth="yes"/>
    </contour>
    <contour>
      <point x="49" y="615"/>
      <point x="238" y="810"/>
      <point x="457" y="810" type="curve" smooth="yes"/>
      <point x="691" y="810"/>
      <point x="862" y="605"/>
      <point x="862" y="370" type="curve" smooth="yes"/>
      <point x="862" y="158"/>
      <point x="682" y="0"/>
      <point x="471" y="0" type="curve" smooth="yes"/>
      <point x="246" y="0"/>
      <point x="51" y="169"/>
      <point x="50" y="395" type="curve" smooth="yes"/>
    </contour>
  </outline>
</glyph>
<glyph name="R" format="1">
  <advance width="768"/>
  <unicode hex="0052"/>
  <outline>
    <contour>
      <point x="368" y="207" type="line"/>
      <point x="623" y="207"/>
      <point x="728" y="350"/>
      <point x="728" y="493" type="curve" smooth="yes"/>
      <point x="728" y="601"/>
      <point x="658" y="800"/>
      <point x="368" y="800" type="curve"/>
      <point x="161" y="800" type="line"/>
      <point x="162" y="677" type="line"/>
      <point x="368" y="677" type="line"/>
      <point x="650" y="677"/>
      <point x="664" y="338"/>
      <point x="367" y="338" type="curve"/>
      <point x="132" y="338" type="line"/>
      <point x="127" y="206" type="line"/>
    </contour>
    <contour>
      <point x="170" y="0" type="line"/>
      <point x="170" y="680" type="line"/>
      <point x="170" y="726"/>
      <point x="170" y="754"/>
      <point x="170" y="800" type="curve"/>
      <point x="40" y="801" type="line"/>
      <point x="40" y="0" type="line"/>
    </contour>
    <contour>
      <point x="639" y="0" type="line"/>
      <point x="639" y="0"/>
      <point x="464" y="285"/>
      <point x="475" y="253" type="curve"/>
      <point x="319" y="253" type="line"/>
      <point x="483" y="0" type="line"/>
    </contour>
  </outline>
</glyph>
<glyph name="S" format="1">
  <advance width="758"/>
  <unicode hex="0053"/>
  <outline>
    <contour>
      <point x="708" y="722" type="line"/>
      <point x="594" y="782"/>
      <point x="489" y="805"/>
      <point x="370" y="805" type="curve"/>
      <point x="200" y="805"/>
      <point x="74" y="732"/>
      <point x="74" y="584" type="curve" smooth="yes"/>
      <point x="74" y="296"/>
      <point x="570" y="389"/>
      <point x="570" y="203" type="curve" smooth="yes"/>
      <point x="570" y="137"/>
      <point x="485" y="118"/>
      <point x="397" y="118" type="curve" smooth="yes"/>
      <point x="296" y="118"/>
      <point x="218" y="135"/>
      <point x="94" y="196" type="curve"/>
      <point x="40" y="78" type="line"/>
      <point x="157" y="22"/>
      <point x="298" y="-8"/>
      <point x="397" y="-8" type="curve"/>
      <point x="583" y="-8"/>
      <point x="718" y="66"/>
      <point x="718" y="199" type="curve" smooth="yes"/>
      <point x="718" y="496"/>
      <point x="222" y="428"/>
      <point x="222" y="586" type="curve" smooth="yes"/>
      <point x="222" y="644"/>
      <point x="283" y="679"/>
      <point x="388" y="679" type="curve" smooth="yes"/>
      <point x="480" y="679"/>
      <point x="568" y="661"/>
      <point x="658" y="603" type="curve"/>
    </contour>
  </outline>
</glyph>
<glyph name="T" format="1">
  <advance width="660"/>
  <unicode hex="0054"/>
  <outline>
    <contour>
      <point x="265" y="0" type="line"/>
      <point x="404" y="0" type="line"/>
      <point x="404" y="800" type="line"/>
      <point x="265" y="800" type="line"/>
    </contour>
    <contour>
      <point x="30" y="685" type="line"/>
      <point x="630" y="685" type="line"/>
      <point x="630" y="800" type="line"/>
      <point x="30" y="800" type="line"/>
    </contour>
  </outline>
</glyph>
<glyph name="U" format="1">
  <advance width="742"/>
  <unicode hex="0055"/>
  <outline>
    <contour>
      <point x="174" y="325" type="line"/>
      <point x="174" y="241"/>
      <point x="205" y="111"/>
      <point x="372" y="111" type="curve"/>
      <point x="529" y="111"/>
      <point x="572" y="223"/>
      <point x="572" y="325" type="curve"/>
      <point x="570" y="802" type="line"/>
      <point x="700" y="802" type="line"/>
      <point x="702" y="325" type="line"/>
      <point x="702" y="294"/>
      <point x="698" y="-11"/>
      <point x="376" y="-11" type="curve"/>
      <point x="43" y="-11"/>
      <point x="44" y="296"/>
      <point x="45" y="325" type="curve"/>
      <point x="40" y="800" type="line"/>
      <point x="170" y="800" type="line"/>
    </contour>
  </outline>
</glyph>
<glyph name="V" format="1">
  <advance width="675"/>
  <unicode hex="0056"/>
  <outline>
    <contour>
      <point x="325" y="0" type="line"/>
      <point x="450" y="0" type="line"/>
      <point x="730" y="800" type="line"/>
      <point x="575" y="800" type="line"/>
      <point x="388" y="216" type="line"/>
      <point x="200" y="800" type="line"/>
      <point x="45" y="800" type="line"/>
    </contour>
  </outline>
</glyph>
<glyph name="W" format="1">
  <advance width="983"/>
  <unicode hex="0057"/>
  <outline>
    <contour>
      <point x="556" y="537" type="line"/>
      <point x="409" y="537" type="line"/>
      <point x="414" y="537" type="line"/>
      <point x="602" y="0" type="line"/>
      <point x="727" y="0" type="line"/>
      <point x="1007" y="800" type="line"/>
      <point x="852" y="800" type="line"/>
      <point x="665" y="216" type="line"/>
      <point x="562" y="537" type="line"/>
    </contour>
    <contour>
      <point x="562" y="537" type="line"/>
      <point x="414" y="537" type="line"/>
      <point x="409" y="537" type="line"/>
      <point x="306" y="216" type="line"/>
      <point x="118" y="800" type="line"/>
      <point x="-37" y="800" type="line"/>
      <point x="243" y="0" type="line"/>
      <point x="368" y="0" type="line"/>
      <point x="556" y="537" type="line"/>
    </contour>
  </outline>
</glyph>
<glyph name="X" format="1">
  <advance width="900"/>
  <unicode hex="0058"/>
  <outline>
    <contour>
      <point x="50" y="800" type="line"/>
      <point x="208" y="799" type="line"/>
      <point x="459" y="492" type="line"/>
      <point x="708" y="799" type="line"/>
      <point x="870" y="800" type="line"/>
      <point x="544" y="400" type="line"/>
      <point x="870" y="0" type="line"/>
      <point x="708" y="0" type="line"/>
      <point x="459" y="308" type="line"/>
      <point x="208" y="0" type="line"/>
      <point x="50" y="0" type="line"/>
      <point x="374" y="400" type="line"/>
    </contour>
  </outline>
</glyph>
<glyph name="Y" format="1">
  <advance width="819"/>
  <unicode hex="0059"/>
  <outline>
    <contour>
      <point x="-10" y="800" type="line"/>
      <point x="156" y="800" type="line"/>
      <point x="404" y="427" type="line"/>
      <point x="631" y="800" type="line"/>
      <point x="809" y="800" type="line"/>
      <point x="484" y="317" type="line"/>
      <point x="491" y="0" type="line"/>
      <point x="327" y="0" type="line"/>
      <point x="327" y="318" type="line"/>
    </contour>
  </outline>
</glyph>
<glyph name="Z" format="1">
  <advance width="784"/>
  <unicode hex="005A"/>
  <outline>
    <contour>
      <point x="65" y="685" type="line"/>
      <point x="734" y="685" type="line"/>
      <point x="734" y="800" type="line"/>
      <point x="65" y="800" type="line"/>
    </contour>
    <contour>
      <point x="50" y="0" type="line"/>
      <point x="728" y="0" type="line"/>
      <point x="728" y="115" type="line"/>
      <point x="50" y="115" type="line"/>
    </contour>
    <contour>
      <point x="50" y="116" type="line"/>
      <point x="50" y="66" type="line"/>
      <point x="211" y="98" type="line"/>
      <point x="734" y="672" type="line"/>
      <point x="734" y="716" type="line"/>
      <point x="595" y="716" type="line"/>
    </contour>
  </outline>
</glyph>
<glyph name="E.ss01" format="1">
  <advance width="696"/>
  <outline>
    <contour>
      <point x="50" y="800" type="line"/>
      <point x="50" y="0" type="line"/>
      <point x="646" y="0" type="line"/>
      <point x="646" y="142" type="line"/>
      <point x="206" y="142" type="line"/>
      <point x="206" y="413" type="line"/>
      <point x="320" y="439"/>
      <point x="399" y="363"/>
      <point x="500" y="393" type="curve"/>
      <point x="500" y="522" type="line"/>
      <point x="399" y="492"/>
      <point x="320" y="568"/>
      <point x="206" y="542" type="curve"/>
      <point x="206" y="682" type="line"/>
      <point x="628" y="682" type="line"/>
      <point x="627" y="800" type="line"/>
    </contour>
  </outline>
</glyph>
<glyph name="H.ss01" format="1">
  <advance width="748"/>
  <outline>
    <contour>
      <point x="50" y="0" type="line"/>
      <point x="180" y="0" type="line"/>
      <point x="180" y="800" type="line"/>
      <point x="50" y="800" type="line"/>
    </contour>
    <contour>
      <point x="568" y="0" type="line"/>
      <point x="698" y="0" type="line"/>
      <point x="698" y="800" type="line"/>
      <point x="568" y="800" type="line"/>
    </contour>
    <contour>
      <point x="100" y="411" type="line"/>
      <point x="100" y="411"/>
      <point x="158" y="451"/>
      <point x="243" y="451" type="curve" smooth="yes"/>
      <point x="380" y="451"/>
      <point x="412" y="379"/>
      <point x="622" y="399" type="curve"/>
      <point x="622" y="419"/>
      <point x="622" y="517"/>
      <point x="622" y="517" type="curve" smooth="yes"/>
      <point x="622" y="517"/>
      <point x="581" y="505"/>
      <point x="513" y="505" type="curve" smooth="yes"/>
      <point x="410" y="505"/>
      <point x="371" y="564"/>
      <point x="251" y="564" type="curve" smooth="yes"/>
      <point x="161" y="564"/>
      <point x="100" y="532"/>
      <point x="100" y="532" type="curve"/>
    </contour>
  </outline>
</glyph>
<glyph name="M.ss01" format="1">
  <advance width="856"/>
  <outline>
    <contour>
      <point x="50" y="800" type="line"/>
      <point x="182" y="800" type="line"/>
      <point x="437" y="398" type="line"/>
      <point x="673" y="800" type="line"/>
      <point x="806" y="800" type="line"/>
      <point x="806" y="0" type="line"/>
      <point x="673" y="0" type="line"/>
      <point x="673" y="552" type="line"/>
      <point x="498" y="292" type="line"/>
      <point x="360" y="292" type="line"/>
      <point x="183" y="551" type="line"/>
      <point x="183" y="0" type="line"/>
      <point x="51" y="0" type="line"/>
    </contour>
  </outline>
</glyph>
<glyph name="Q.ss01" format="1">
  <advance width="937"/>
  <outline>
    <contour>
      <point x="887" y="612" type="move"/>
    </contour>
    <contour>
      <point x="458" y="676" type="curve" smooth="yes"/>
      <point x="313" y="676"/>
      <point x="191" y="536"/>
      <point x="191" y="391" type="curve" smooth="yes"/>
      <point x="191" y="232"/>
      <point x="316" y="117"/>
      <point x="475" y="116" type="curve" smooth="yes"/>
      <point x="617" y="115"/>
      <point x="741" y="236"/>
      <point x="741" y="380" type="curve" smooth="yes"/>
      <point x="741" y="541"/>
      <point x="617" y="676"/>
    </contour>
    <contour>
      <point x="597" y="323" type="line"/>
      <point x="666" y="305"/>
      <point x="712" y="266"/>
      <point x="752" y="221" type="curve" smooth="yes"/>
      <point x="792" y="175"/>
      <point x="807" y="144"/>
      <point x="851" y="135" type="curve"/>
      <point x="850" y="31" type="line"/>
      <point x="798" y="44"/>
      <point x="732" y="92"/>
      <point x="690" y="144" type="curve" smooth="yes"/>
      <point x="660" y="181"/>
      <point x="654" y="194"/>
      <point x="597" y="213" type="curve"/>
    </contour>
    <contour>
      <point x="457" y="810" type="curve" smooth="yes"/>
      <point x="691" y="810"/>
      <point x="863" y="605"/>
      <point x="862" y="370" type="curve" smooth="yes"/>
      <point x="861" y="158"/>
      <point x="682" y="0"/>
      <point x="471" y="0" type="curve" smooth="yes"/>
      <point x="246" y="0"/>
      <point x="51" y="169"/>
      <point x="50" y="395" type="curve" smooth="yes"/>
      <point x="49" y="615"/>
      <point x="238" y="810"/>
    </contour>
  </outline>
</glyph>
<glyph name="R.ss01" format="1">
  <advance width="788"/>
  <outline>
    <contour>
      <point x="378" y="207" type="line"/>
      <point x="633" y="207"/>
      <point x="738" y="350"/>
      <point x="738" y="493" type="curve" smooth="yes"/>
      <point x="738" y="601"/>
      <point x="668" y="800"/>
      <point x="378" y="800" type="curve"/>
      <point x="171" y="800" type="line"/>
      <point x="172" y="677" type="line"/>
      <point x="378" y="677" type="line"/>
      <point x="660" y="677"/>
      <point x="674" y="338"/>
      <point x="377" y="338" type="curve"/>
      <point x="142" y="338" type="line"/>
      <point x="137" y="206" type="line"/>
    </contour>
    <contour>
      <point x="180" y="0" type="line"/>
      <point x="180" y="680" type="line"/>
      <point x="180" y="726"/>
      <point x="180" y="754"/>
      <point x="180" y="800" type="curve"/>
      <point x="50" y="801" type="line"/>
      <point x="50" y="0" type="line"/>
    </contour>
    <contour>
      <point x="671" y="0" type="line"/>
      <point x="551" y="53"/>
      <point x="609" y="176"/>
      <point x="485" y="229" type="curve"/>
      <point x="303" y="229" type="line"/>
      <point x="474" y="179"/>
      <point x="399" y="53"/>
      <point x="515" y="0" type="curve"/>
    </contour>
  </outline>
</glyph>
<glyph name="Z.ss01" format="1">
  <advance width="600"/>
  <outline>
    <contour>
      <point x="-31" y="685" type="line"/>
      <point x="564" y="685" type="line"/>
      <point x="638" y="745" type="line"/>
      <point x="638" y="800" type="line"/>
      <point x="-31" y="800" type="line"/>
    </contour>
    <contour>
      <point x="-46" y="0" type="line"/>
      <point x="632" y="0" type="line"/>
      <point x="632" y="115" type="line"/>
      <point x="35" y="115" type="line"/>
      <point x="-46" y="85" type="line"/>
    </contour>
    <contour>
      <point x="493" y="479"/>
      <point x="-46" y="365"/>
      <point x="-46" y="86" type="curve"/>
      <point x="-46" y="66" type="line"/>
      <point x="99" y="98" type="line"/>
      <point x="99" y="300"/>
      <point x="638" y="414"/>
      <point x="638" y="732" type="curve"/>
      <point x="638" y="776" type="line"/>
      <point x="493" y="716" type="line"/>
    </contour>
  </outline>
</glyph>
